<svg xmlns="http://www.w3.org/2000/svg" xmlns:xlink="http://www.w3.org/1999/xlink" width="500" zoomAndPan="magnify" viewBox="0 0 375 374.999991" height="500" preserveAspectRatio="xMidYMid meet" version="1.2"><defs><filter x="0%" y="0%" width="100%" filterUnits="objectBoundingBox" id="379c79e403" height="100%"><feColorMatrix values="0 0 0 0 1 0 0 0 0 1 0 0 0 0 1 0 0 0 1 0" type="matrix" in="SourceGraphic"/></filter><clipPath id="ebb1338d66"><path d="M 1 0.878906 L 374 0.878906 L 374 288 L 1 288 Z M 1 0.878906 "/></clipPath><clipPath id="bc0bb9f66e"><path d="M 224.394531 5.882812 C 262.589844 16.015625 292.992188 40.832031 311.3125 72.53125 C 322.355469 91.5 328.980469 112.9375 330.277344 135.410156 C 360.679688 155.03125 377.050781 175.816406 372.242188 193.613281 C 367.566406 211.414062 343.011719 221.289062 306.765625 223.105469 C 294.421875 241.683594 277.921875 257.015625 258.953125 268.058594 C 227.253906 286.375 188.539062 292.484375 150.34375 282.347656 C 112.277344 272.085938 81.875 247.402344 63.558594 215.703125 L 63.425781 215.703125 C 52.515625 196.601562 45.886719 175.167969 44.589844 152.820312 C 14.058594 133.203125 -2.179688 112.285156 2.496094 94.617188 C 7.304688 76.820312 31.855469 66.945312 68.105469 65.125 C 80.445312 46.417969 96.945312 31.085938 115.914062 20.175781 C 147.613281 1.855469 186.328125 -4.378906 224.394531 5.882812 Z M 330.277344 152.300781 C 329.757812 161.785156 328.199219 171.527344 325.601562 181.144531 C 323.003906 190.757812 319.625 199.851562 315.207031 208.425781 C 339.894531 206.21875 356.003906 200.109375 358.730469 189.976562 C 361.460938 179.972656 350.546875 166.460938 330.277344 152.300781 Z M 44.460938 135.929688 C 45.109375 126.316406 46.667969 116.703125 49.136719 107.089844 C 51.734375 97.476562 55.242188 88.25 59.53125 79.675781 C 34.84375 81.886719 18.734375 88.121094 16.136719 98.125 C 13.410156 108.257812 24.191406 121.640625 44.460938 135.929688 Z M 289.355469 223.367188 C 270.777344 223.105469 249.730469 221.027344 227.253906 217.390625 C 220.886719 230.511719 213.742188 241.945312 206.46875 251.558594 C 199.582031 260.523438 192.4375 267.796875 185.160156 273.125 C 208.9375 273.644531 232.0625 267.410156 251.9375 255.847656 C 266.359375 247.660156 279.089844 236.617188 289.355469 223.367188 Z M 212.964844 214.792969 C 199.320312 212.195312 185.289062 208.945312 171 205.179688 C 156.839844 201.28125 143.066406 197.121094 129.945312 192.574219 C 129.425781 204.660156 129.816406 215.832031 131.113281 225.835938 C 134.101562 249.351562 142.027344 265.589844 153.980469 268.707031 C 165.933594 271.957031 180.875 261.953125 195.292969 243.113281 C 201.398438 235.058594 207.375 225.574219 212.964844 214.792969 Z M 116.175781 187.640625 C 94.867188 179.585938 75.769531 170.75 59.53125 161.785156 C 61.867188 178.414062 67.324219 194.265625 75.640625 208.6875 C 87.203125 228.5625 103.960938 245.453125 124.878906 257.015625 C 121.242188 248.832031 118.644531 238.828125 117.214844 227.652344 C 115.65625 215.703125 115.265625 202.191406 116.175781 187.640625 Z M 85.511719 64.867188 C 104.089844 65.125 125.007812 67.074219 147.484375 70.84375 C 153.980469 57.722656 160.996094 46.160156 168.402344 36.542969 C 175.285156 27.578125 182.433594 20.304688 189.707031 14.976562 C 165.804688 14.589844 142.808594 20.824219 122.929688 32.257812 L 122.800781 32.257812 C 108.507812 40.570312 95.777344 51.613281 85.511719 64.867188 Z M 161.90625 73.441406 C 175.546875 76.039062 189.449219 79.15625 203.738281 83.054688 C 218.03125 86.824219 231.800781 91.109375 244.921875 95.65625 C 245.441406 83.574219 245.054688 72.273438 243.753906 62.269531 C 240.636719 38.753906 232.839844 22.644531 220.886719 19.394531 C 208.804688 16.148438 193.996094 26.28125 179.574219 45.117188 C 173.339844 53.175781 167.492188 62.65625 161.90625 73.441406 Z M 258.5625 100.59375 C 279.871094 108.648438 299.097656 117.351562 315.339844 126.449219 C 313 109.816406 307.542969 93.839844 299.230469 79.546875 C 287.664062 59.539062 270.90625 42.652344 249.988281 31.21875 C 253.628906 39.402344 256.226562 49.277344 257.65625 60.449219 C 259.214844 72.53125 259.605469 86.042969 258.5625 100.59375 Z M 316.507812 143.335938 C 300.269531 133.464844 280.128906 123.847656 257.265625 115.015625 C 255.578125 129.566406 252.589844 144.894531 248.429688 160.484375 C 244.273438 176.078125 239.207031 190.757812 233.359375 204.136719 C 257.523438 207.90625 279.871094 209.726562 298.839844 209.335938 C 304.554688 199.589844 308.972656 188.9375 312.089844 177.503906 C 315.207031 166.074219 316.636719 154.640625 316.507812 143.335938 Z M 243.753906 110.078125 C 229.980469 105.140625 215.429688 100.722656 200.101562 96.566406 C 184.902344 92.539062 169.960938 89.160156 155.667969 86.433594 C 149.5625 100.074219 144.238281 115.144531 139.949219 131.382812 C 135.53125 147.496094 132.671875 163.34375 131.113281 178.15625 C 144.886719 182.960938 159.4375 187.507812 174.636719 191.535156 C 189.96875 195.695312 204.777344 199.070312 219.199219 201.671875 C 225.175781 188.160156 230.632812 172.957031 234.917969 156.847656 C 239.207031 140.609375 242.195312 124.886719 243.753906 110.078125 Z M 141.378906 84.09375 C 117.214844 80.195312 94.996094 78.507812 76.03125 78.898438 C 70.3125 88.640625 65.765625 99.292969 62.777344 110.726562 C 59.660156 122.160156 58.230469 133.59375 58.359375 144.894531 C 74.601562 154.640625 94.738281 164.253906 117.601562 173.089844 C 119.292969 158.539062 122.152344 143.335938 126.308594 127.746094 C 130.59375 112.15625 135.660156 97.476562 141.378906 84.09375 Z M 141.378906 84.09375 "/></clipPath><linearGradient x1="4.822994" gradientTransform="matrix(12.991797,0,0,12.991797,1.716454,0.946823)" y1="25.703978" x2="23.868287" gradientUnits="userSpaceOnUse" y2="-3.209078" id="a7437880ba"><stop style="stop-color:#a8cf45;stop-opacity:1;" offset="0"/><stop style="stop-color:#a8cf45;stop-opacity:1;" offset="0.0625"/><stop style="stop-color:#a8cf45;stop-opacity:1;" offset="0.09375"/><stop style="stop-color:#a8cf46;stop-opacity:1;" offset="0.109375"/><stop style="stop-color:#a9d046;stop-opacity:1;" offset="0.117188"/><stop style="stop-color:#aad147;stop-opacity:1;" offset="0.125"/><stop style="stop-color:#aad147;stop-opacity:1;" offset="0.132812"/><stop style="stop-color:#abd248;stop-opacity:1;" offset="0.140625"/><stop style="stop-color:#abd248;stop-opacity:1;" offset="0.148438"/><stop style="stop-color:#acd349;stop-opacity:1;" offset="0.15625"/><stop style="stop-color:#acd349;stop-opacity:1;" offset="0.164062"/><stop style="stop-color:#add44a;stop-opacity:1;" offset="0.171875"/><stop style="stop-color:#add44a;stop-opacity:1;" offset="0.179688"/><stop style="stop-color:#aed54b;stop-opacity:1;" offset="0.1875"/><stop style="stop-color:#afd64c;stop-opacity:1;" offset="0.195312"/><stop style="stop-color:#afd64c;stop-opacity:1;" offset="0.203125"/><stop style="stop-color:#b0d74d;stop-opacity:1;" offset="0.210938"/><stop style="stop-color:#b0d74d;stop-opacity:1;" offset="0.21875"/><stop style="stop-color:#b1d84e;stop-opacity:1;" offset="0.226562"/><stop style="stop-color:#b1d84e;stop-opacity:1;" offset="0.234375"/><stop style="stop-color:#b2d94f;stop-opacity:1;" offset="0.242188"/><stop style="stop-color:#b2d94f;stop-opacity:1;" offset="0.25"/><stop style="stop-color:#b3da50;stop-opacity:1;" offset="0.257812"/><stop style="stop-color:#b3da50;stop-opacity:1;" offset="0.265625"/><stop style="stop-color:#b4db51;stop-opacity:1;" offset="0.273438"/><stop style="stop-color:#b4db51;stop-opacity:1;" offset="0.28125"/><stop style="stop-color:#b5dc52;stop-opacity:1;" offset="0.289062"/><stop style="stop-color:#b6dd52;stop-opacity:1;" offset="0.296875"/><stop style="stop-color:#b6dd53;stop-opacity:1;" offset="0.304688"/><stop style="stop-color:#b7de54;stop-opacity:1;" offset="0.3125"/><stop style="stop-color:#b7de54;stop-opacity:1;" offset="0.320312"/><stop style="stop-color:#b8df55;stop-opacity:1;" offset="0.328125"/><stop style="stop-color:#b8df55;stop-opacity:1;" offset="0.335938"/><stop style="stop-color:#b9e056;stop-opacity:1;" offset="0.34375"/><stop style="stop-color:#b9e056;stop-opacity:1;" offset="0.351562"/><stop style="stop-color:#bae157;stop-opacity:1;" offset="0.359375"/><stop style="stop-color:#bae157;stop-opacity:1;" offset="0.367188"/><stop style="stop-color:#bbe258;stop-opacity:1;" offset="0.375"/><stop style="stop-color:#bbe258;stop-opacity:1;" offset="0.382812"/><stop style="stop-color:#bce359;stop-opacity:1;" offset="0.390625"/><stop style="stop-color:#bce359;stop-opacity:1;" offset="0.398438"/><stop style="stop-color:#bde45a;stop-opacity:1;" offset="0.40625"/><stop style="stop-color:#bee55a;stop-opacity:1;" offset="0.414062"/><stop style="stop-color:#bee55b;stop-opacity:1;" offset="0.421875"/><stop style="stop-color:#bfe65b;stop-opacity:1;" offset="0.429688"/><stop style="stop-color:#bfe65c;stop-opacity:1;" offset="0.4375"/><stop style="stop-color:#c0e75d;stop-opacity:1;" offset="0.445312"/><stop style="stop-color:#c0e75d;stop-opacity:1;" offset="0.453125"/><stop style="stop-color:#c1e85e;stop-opacity:1;" offset="0.45861"/><stop style="stop-color:#c1e85e;stop-opacity:1;" offset="0.460938"/><stop style="stop-color:#c1e85e;stop-opacity:1;" offset="0.46875"/><stop style="stop-color:#c2e95f;stop-opacity:1;" offset="0.476562"/><stop style="stop-color:#c2e95f;stop-opacity:1;" offset="0.484375"/><stop style="stop-color:#c3ea60;stop-opacity:1;" offset="0.492188"/><stop style="stop-color:#c3ea60;stop-opacity:1;" offset="0.5"/><stop style="stop-color:#c3eb61;stop-opacity:1;" offset="0.507812"/><stop style="stop-color:#c1e960;stop-opacity:1;" offset="0.511719"/><stop style="stop-color:#bfe860;stop-opacity:1;" offset="0.515625"/><stop style="stop-color:#bde75f;stop-opacity:1;" offset="0.519531"/><stop style="stop-color:#bbe65f;stop-opacity:1;" offset="0.523438"/><stop style="stop-color:#b9e55e;stop-opacity:1;" offset="0.527344"/><stop style="stop-color:#b7e45e;stop-opacity:1;" offset="0.53125"/><stop style="stop-color:#b4e35e;stop-opacity:1;" offset="0.535156"/><stop style="stop-color:#b2e15d;stop-opacity:1;" offset="0.539062"/><stop style="stop-color:#b0e05d;stop-opacity:1;" offset="0.542969"/><stop style="stop-color:#aedf5c;stop-opacity:1;" offset="0.546875"/><stop style="stop-color:#acde5c;stop-opacity:1;" offset="0.550781"/><stop style="stop-color:#aadd5b;stop-opacity:1;" offset="0.554688"/><stop style="stop-color:#a8dc5b;stop-opacity:1;" offset="0.558594"/><stop style="stop-color:#a6db5b;stop-opacity:1;" offset="0.5625"/><stop style="stop-color:#a4da5a;stop-opacity:1;" offset="0.566406"/><stop style="stop-color:#a2d95a;stop-opacity:1;" offset="0.570312"/><stop style="stop-color:#a0d759;stop-opacity:1;" offset="0.574219"/><stop style="stop-color:#9ed659;stop-opacity:1;" offset="0.578125"/><stop style="stop-color:#9cd558;stop-opacity:1;" offset="0.582031"/><stop style="stop-color:#9ad458;stop-opacity:1;" offset="0.585938"/><stop style="stop-color:#98d357;stop-opacity:1;" offset="0.589844"/><stop style="stop-color:#96d257;stop-opacity:1;" offset="0.59375"/><stop style="stop-color:#94d157;stop-opacity:1;" offset="0.597656"/><stop style="stop-color:#92d056;stop-opacity:1;" offset="0.601562"/><stop style="stop-color:#90ce56;stop-opacity:1;" offset="0.605469"/><stop style="stop-color:#8ecd55;stop-opacity:1;" offset="0.609375"/><stop style="stop-color:#8ccc55;stop-opacity:1;" offset="0.613281"/><stop style="stop-color:#89cb54;stop-opacity:1;" offset="0.617188"/><stop style="stop-color:#87ca54;stop-opacity:1;" offset="0.621094"/><stop style="stop-color:#85c954;stop-opacity:1;" offset="0.625"/><stop style="stop-color:#83c853;stop-opacity:1;" offset="0.628906"/><stop style="stop-color:#81c753;stop-opacity:1;" offset="0.632812"/><stop style="stop-color:#7fc552;stop-opacity:1;" offset="0.636719"/><stop style="stop-color:#7dc452;stop-opacity:1;" offset="0.640625"/><stop style="stop-color:#7bc351;stop-opacity:1;" offset="0.644531"/><stop style="stop-color:#79c251;stop-opacity:1;" offset="0.648438"/><stop style="stop-color:#77c150;stop-opacity:1;" offset="0.652344"/><stop style="stop-color:#75c050;stop-opacity:1;" offset="0.65625"/><stop style="stop-color:#73bf50;stop-opacity:1;" offset="0.660156"/><stop style="stop-color:#71be4f;stop-opacity:1;" offset="0.664062"/><stop style="stop-color:#6fbd4f;stop-opacity:1;" offset="0.667969"/><stop style="stop-color:#6dbb4e;stop-opacity:1;" offset="0.671875"/><stop style="stop-color:#6bba4e;stop-opacity:1;" offset="0.675781"/><stop style="stop-color:#69b94d;stop-opacity:1;" offset="0.679688"/><stop style="stop-color:#67b84d;stop-opacity:1;" offset="0.683594"/><stop style="stop-color:#65b74d;stop-opacity:1;" offset="0.6875"/><stop style="stop-color:#63b64c;stop-opacity:1;" offset="0.691406"/><stop style="stop-color:#60b54c;stop-opacity:1;" offset="0.695312"/><stop style="stop-color:#5eb44b;stop-opacity:1;" offset="0.699219"/><stop style="stop-color:#5cb24b;stop-opacity:1;" offset="0.703125"/><stop style="stop-color:#5ab14a;stop-opacity:1;" offset="0.707031"/><stop style="stop-color:#58b04a;stop-opacity:1;" offset="0.710938"/><stop style="stop-color:#56af49;stop-opacity:1;" offset="0.714844"/><stop style="stop-color:#54ae49;stop-opacity:1;" offset="0.71875"/><stop style="stop-color:#52ad49;stop-opacity:1;" offset="0.722656"/><stop style="stop-color:#50ac48;stop-opacity:1;" offset="0.726562"/><stop style="stop-color:#4eab48;stop-opacity:1;" offset="0.730469"/><stop style="stop-color:#4caa47;stop-opacity:1;" offset="0.734375"/><stop style="stop-color:#4aa847;stop-opacity:1;" offset="0.738281"/><stop style="stop-color:#48a746;stop-opacity:1;" offset="0.742188"/><stop style="stop-color:#46a646;stop-opacity:1;" offset="0.746094"/><stop style="stop-color:#44a546;stop-opacity:1;" offset="0.75"/><stop style="stop-color:#42a445;stop-opacity:1;" offset="0.753906"/><stop style="stop-color:#40a345;stop-opacity:1;" offset="0.757812"/><stop style="stop-color:#3ea244;stop-opacity:1;" offset="0.761719"/><stop style="stop-color:#3ca144;stop-opacity:1;" offset="0.765625"/><stop style="stop-color:#3a9f43;stop-opacity:1;" offset="0.769531"/><stop style="stop-color:#389e43;stop-opacity:1;" offset="0.773438"/><stop style="stop-color:#359d42;stop-opacity:1;" offset="0.777344"/><stop style="stop-color:#339c42;stop-opacity:1;" offset="0.78125"/><stop style="stop-color:#319b42;stop-opacity:1;" offset="0.785156"/><stop style="stop-color:#2f9a41;stop-opacity:1;" offset="0.789062"/><stop style="stop-color:#2d9941;stop-opacity:1;" offset="0.792969"/><stop style="stop-color:#2b9840;stop-opacity:1;" offset="0.796875"/><stop style="stop-color:#299640;stop-opacity:1;" offset="0.800781"/><stop style="stop-color:#27953f;stop-opacity:1;" offset="0.804688"/><stop style="stop-color:#25943f;stop-opacity:1;" offset="0.808594"/><stop style="stop-color:#23933f;stop-opacity:1;" offset="0.8125"/><stop style="stop-color:#21923e;stop-opacity:1;" offset="0.816406"/><stop style="stop-color:#1f913e;stop-opacity:1;" offset="0.820312"/><stop style="stop-color:#1d903d;stop-opacity:1;" offset="0.824219"/><stop style="stop-color:#1b8f3d;stop-opacity:1;" offset="0.828125"/><stop style="stop-color:#198e3c;stop-opacity:1;" offset="0.832031"/><stop style="stop-color:#178c3c;stop-opacity:1;" offset="0.835938"/><stop style="stop-color:#158b3b;stop-opacity:1;" offset="0.839844"/><stop style="stop-color:#138a3b;stop-opacity:1;" offset="0.84375"/><stop style="stop-color:#11893b;stop-opacity:1;" offset="0.847656"/><stop style="stop-color:#0f883a;stop-opacity:1;" offset="0.851562"/><stop style="stop-color:#0d873a;stop-opacity:1;" offset="0.855469"/><stop style="stop-color:#0a8639;stop-opacity:1;" offset="0.859375"/><stop style="stop-color:#088539;stop-opacity:1;" offset="0.863281"/><stop style="stop-color:#068338;stop-opacity:1;" offset="0.867187"/><stop style="stop-color:#048238;stop-opacity:1;" offset="0.871094"/><stop style="stop-color:#028138;stop-opacity:1;" offset="0.875"/><stop style="stop-color:#018137;stop-opacity:1;" offset="0.878906"/><stop style="stop-color:#008037;stop-opacity:1;" offset="0.882813"/><stop style="stop-color:#008037;stop-opacity:1;" offset="0.890625"/><stop style="stop-color:#008037;stop-opacity:1;" offset="0.90625"/><stop style="stop-color:#008037;stop-opacity:1;" offset="0.9375"/><stop style="stop-color:#008037;stop-opacity:1;" offset="1"/></linearGradient><clipPath id="cb631b1088"><rect x="0" width="375" y="0" height="300"/></clipPath><clipPath id="8fd60a6223"><path d="M 200 170 L 322 170 L 322 291.683594 L 200 291.683594 Z M 200 170 "/></clipPath><clipPath id="cf2726b7e4"><path d="M 175 37.5 L 200 37.5 L 200 96 L 175 96 Z M 175 37.5 "/></clipPath><clipPath id="ab082ed9df"><path d="M 52.480469 170 L 174 170 L 174 291.683594 L 52.480469 291.683594 Z M 52.480469 170 "/></clipPath></defs><g id="36df483ed1"><g mask="url(#a8c8923bbf)" transform="matrix(1,0,0,1,0,44)"><g clip-path="url(#cb631b1088)"><g clip-rule="nonzero" clip-path="url(#ebb1338d66)"><g clip-rule="nonzero" clip-path="url(#bc0bb9f66e)"><path style=" stroke:none;fill-rule:nonzero;fill:url(#a7437880ba);" d="M 0 0.878906 L 0 292.484375 L 375 292.484375 L 375 0.878906 Z M 0 0.878906 "/></g></g></g><mask id="a8c8923bbf"><g filter="url(#379c79e403)"><rect x="0" width="375" y="0" height="374.999991" style="fill:#000000;fill-opacity:0.67;stroke:none;"/></g></mask></g><g clip-rule="nonzero" clip-path="url(#8fd60a6223)"><path style=" stroke:none;fill-rule:evenodd;fill:#a8cf45;fill-opacity:1;" d="M 310.578125 225.46875 L 255.613281 170.503906 L 200.722656 225.394531 L 255.6875 280.359375 C 270.785156 295.457031 295.484375 295.457031 310.578125 280.359375 C 325.671875 265.265625 325.671875 240.566406 310.578125 225.46875 Z M 263.152344 192.105469 L 303.550781 232.5 C 312.972656 241.921875 314.476562 256.425781 308.058594 267.46875 C 314.398438 241.304688 291.351562 227.359375 263.152344 192.105469 Z M 263.152344 192.105469 "/></g><g clip-rule="nonzero" clip-path="url(#cf2726b7e4)"><path style=" stroke:none;fill-rule:evenodd;fill:#c4eb61;fill-opacity:1;" d="M 187.191406 95.058594 C 194.894531 87.460938 199.230469 77.09375 199.230469 66.277344 C 199.230469 55.460938 194.894531 45.097656 187.191406 37.5 C 179.492188 45.097656 175.15625 55.460938 175.15625 66.277344 C 175.15625 77.09375 179.492188 87.460938 187.191406 95.058594 Z M 187.191406 95.058594 "/></g><path style=" stroke:none;fill-rule:evenodd;fill:#008037;fill-opacity:1;" d="M 183.246094 125.550781 C 172.429688 125.625 162.035156 121.359375 154.386719 113.710938 C 146.738281 106.0625 142.472656 95.667969 142.546875 84.851562 C 153.359375 84.78125 163.753906 89.046875 171.40625 96.695312 C 179.054688 104.34375 183.320312 114.734375 183.246094 125.550781 Z M 191.140625 125.554688 C 201.957031 125.625 212.347656 121.359375 220 113.710938 C 227.644531 106.0625 231.914062 95.667969 231.839844 84.851562 C 221.023438 84.777344 210.628906 89.042969 202.980469 96.695312 C 195.332031 104.34375 191.066406 114.734375 191.140625 125.554688 Z M 191.140625 125.554688 "/><path style=" stroke:none;fill-rule:evenodd;fill:#008037;fill-opacity:1;" d="M 194.410156 177.550781 C 208.683594 177.644531 222.394531 172.019531 232.488281 161.925781 C 242.578125 151.835938 248.210938 138.121094 248.109375 123.851562 C 233.839844 123.753906 220.128906 129.382812 210.035156 139.476562 C 199.941406 149.566406 194.316406 163.28125 194.410156 177.550781 Z M 194.410156 177.550781 "/><path style=" stroke:none;fill-rule:evenodd;fill:#008037;fill-opacity:1;" d="M 179.976562 177.550781 C 165.703125 177.644531 151.988281 172.019531 141.898438 161.925781 C 131.804688 151.835938 126.175781 138.121094 126.273438 123.851562 C 140.546875 123.753906 154.261719 129.382812 164.351562 139.476562 C 174.441406 149.566406 180.074219 163.28125 179.976562 177.550781 Z M 179.976562 177.550781 "/><g clip-rule="nonzero" clip-path="url(#ab082ed9df)"><path style=" stroke:none;fill-rule:evenodd;fill:#008037;fill-opacity:1;" d="M 63.804688 225.46875 L 118.769531 170.503906 L 173.660156 225.394531 L 118.695312 280.359375 C 103.601562 295.457031 78.902344 295.457031 63.804688 280.359375 C 48.714844 265.265625 48.714844 240.566406 63.804688 225.46875 Z M 111.234375 192.105469 L 70.835938 232.5 C 61.414062 241.921875 59.910156 256.425781 66.324219 267.46875 C 59.992188 241.304688 83.035156 227.359375 111.234375 192.105469 Z M 111.234375 192.105469 "/></g></g></svg>